<?xml version="1.0" standalone="no"?>
<svg viewBox="0 0 200 200" xmlns="http://www.w3.org/2000/svg">
  <path fill="#FF7A00" d="M42.6,-71.4C55.4,-66.4,66.1,-55.4,73.2,-42.5C80.3,-29.5,83.8,-14.8,80.2,-2.1C76.6,10.6,65.9,21.2,56.2,29.6C46.4,37.9,37.6,43.9,28.4,53.4C19.2,62.8,9.6,75.6,-2.4,79.8C-14.4,83.9,-28.9,79.5,-41.1,71.8C-53.2,64.1,-63.2,53.1,-69.2,40.6C-75.3,28.1,-77.4,14.1,-78.7,-0.7C-79.9,-15.5,-80.1,-31,-75,-44.9C-69.8,-58.9,-59.1,-71.4,-45.7,-75.9C-32.3,-80.5,-16.1,-77.2,-0.6,-76.1C14.9,-75.1,29.8,-76.3,42.6,-71.4Z" transform="translate(100 100)" />
</svg>
