<?xml version="1.0" standalone="no"?>
<svg viewBox="0 0 200 200" xmlns="http://www.w3.org/2000/svg">
  <path fill="#FF7A00" d="M31.2,-57.2C40.9,-48.4,49.6,-41,56.9,-31.7C64.2,-22.4,70.2,-11.2,74.2,2.3C78.2,15.9,80.3,31.7,74.6,43.8C68.9,55.9,55.4,64.3,41.7,69.4C28,74.4,14,76.1,1.3,73.8C-11.3,71.5,-22.6,65.2,-34.8,59.2C-47,53.3,-60.1,47.8,-63.2,38C-66.3,28.2,-59.3,14.1,-55.2,2.4C-51.2,-9.4,-50,-18.8,-48.3,-31.1C-46.7,-43.3,-44.6,-58.6,-36.5,-68.3C-28.4,-78,-14.2,-82.2,-1.7,-79.2C10.7,-76.2,21.5,-66,31.2,-57.2Z" transform="translate(100 100)" />
</svg>
