<?xml version="1.0" standalone="no"?>
<svg viewBox="0 0 200 200" xmlns="http://www.w3.org/2000/svg">
  <path fill="#FF7A00" d="M27,-51.1C35.6,-41.8,43.5,-35.8,47.9,-27.8C52.3,-19.8,53.1,-9.9,54.2,0.6C55.2,11.1,56.5,22.2,52,30C47.4,37.7,37.1,42.1,27.5,50.6C17.9,59.1,8.9,71.7,-0.3,72.2C-9.5,72.8,-19.1,61.2,-27.1,51.8C-35.1,42.3,-41.6,35.1,-50.3,26.8C-58.9,18.5,-69.6,9.3,-71.1,-0.8C-72.5,-10.9,-64.5,-21.8,-57,-32C-49.5,-42.2,-42.4,-51.7,-33,-60.6C-23.6,-69.4,-11.8,-77.5,-1.3,-75.2C9.2,-73,18.4,-60.5,27,-51.1Z" transform="translate(100 100)" />
</svg>
