<?xml version="1.0" standalone="no"?>
<svg viewBox="0 0 200 200" xmlns="http://www.w3.org/2000/svg">
  <path fill="#FF7A00" d="M26.7,-45.4C35.5,-41.2,44.2,-35.8,50.5,-28.1C56.9,-20.3,61,-10.2,63.9,1.7C66.8,13.5,68.6,27.1,65.1,39.8C61.6,52.5,52.8,64.4,41.1,74C29.4,83.6,14.7,90.8,0.7,89.6C-13.2,88.3,-26.5,78.5,-34.5,66.8C-42.5,55.1,-45.3,41.4,-47.4,30C-49.6,18.5,-51,9.3,-57,-3.4C-62.9,-16.1,-73.3,-32.2,-71.8,-44.8C-70.3,-57.3,-56.8,-66.2,-42.9,-67.5C-28.9,-68.8,-14.5,-62.4,-2.8,-57.6C8.9,-52.8,17.9,-49.7,26.7,-45.4Z" transform="translate(100 100)" />
</svg>
