<?xml version="1.0" encoding="UTF-8"?>
<svg version="1.1" xmlns="http://www.w3.org/2000/svg" width="568" height="544">
<path d="M0 0 C4.49369704 1.07803338 6.13348192 3.97085494 8.59375 7.6171875 C9.64119592 9.09129062 10.69075961 10.56389069 11.7421875 12.03515625 C12.55961426 13.194104 12.55961426 13.194104 13.39355469 14.37646484 C16.22367248 18.31440875 19.22343119 22.1168334 22.21875 25.9296875 C23.40148044 27.44497012 24.58377993 28.96058923 25.765625 30.4765625 C26.61157227 31.5603418 26.61157227 31.5603418 27.47460938 32.66601562 C48.26225324 59.32134184 48.26225324 59.32134184 48.15625 69.3671875 C48.15173828 70.16898437 48.14722656 70.97078125 48.14257812 71.796875 C48.13078168 73.77867756 48.11284605 75.76044183 48.09375 77.7421875 C48.86565674 77.72647705 49.63756348 77.7107666 50.43286133 77.69458008 C53.92391662 77.63229143 57.41485509 77.59321577 60.90625 77.5546875 C62.12119141 77.52955078 63.33613281 77.50441406 64.58789062 77.47851562 C65.75126953 77.46884766 66.91464844 77.45917969 68.11328125 77.44921875 C69.18682861 77.4335083 70.26037598 77.41779785 71.36645508 77.40161133 C74.09375 77.7421875 74.09375 77.7421875 75.92456055 79.0534668 C78.54046891 82.83175833 78.12560095 87.82261973 77.97265625 92.23828125 C77.93011719 93.47707031 77.88757813 94.71585937 77.84375 95.9921875 C77.77671875 97.17296875 77.7096875 98.35375 77.640625 99.5703125 C77.79135197 102.94796528 77.79135197 102.94796528 80.609375 105.1640625 C81.42921875 105.68484375 82.2490625 106.205625 83.09375 106.7421875 C83.70863281 105.98421875 83.70863281 105.98421875 84.3359375 105.2109375 C85.14417969 104.23640625 85.14417969 104.23640625 85.96875 103.2421875 C86.50242187 102.5925 87.03609375 101.9428125 87.5859375 101.2734375 C88.08351563 100.768125 88.58109375 100.2628125 89.09375 99.7421875 C89.75375 99.7421875 90.41375 99.7421875 91.09375 99.7421875 C91.42375 98.7521875 91.75375 97.7621875 92.09375 96.7421875 C92.75375 96.7421875 93.41375 96.7421875 94.09375 96.7421875 C94.34125 96.1234375 94.58875 95.5046875 94.84375 94.8671875 C96.32145762 92.35508454 97.53330177 91.98111406 100.09375 90.7421875 C100.42375 89.7521875 100.75375 88.7621875 101.09375 87.7421875 C103.65322449 85.3057496 106.5280588 83.24873555 109.34375 81.1171875 C110.10816406 80.5190625 110.87257813 79.9209375 111.66015625 79.3046875 C112.40652344 78.73492187 113.15289062 78.16515625 113.921875 77.578125 C114.6015332 77.05782715 115.28119141 76.5375293 115.98144531 76.00146484 C118.38432595 74.56895695 120.32291952 74.05557402 123.09375 73.7421875 C124.98046875 74.640625 124.98046875 74.640625 126.78125 76.1171875 C127.45542969 76.66632813 128.12960937 77.21546875 128.82421875 77.78125 C129.57316406 78.42835937 130.32210938 79.07546875 131.09375 79.7421875 C131.99738281 80.51304688 132.90101563 81.28390625 133.83203125 82.078125 C138.99054482 86.58726416 138.99054482 86.58726416 141.09375 88.7421875 C141.09375 89.4021875 141.09375 90.0621875 141.09375 90.7421875 C142.08375 91.0721875 143.07375 91.4021875 144.09375 91.7421875 C170.46808532 115.96644113 186.26134679 158.11490805 188.2890625 193.11328125 C188.82862135 209.24609085 188.82862135 209.24609085 188.09375 214.7421875 C185.36766678 217.46827072 183.19354617 217.40962034 179.40625 218.0546875 C164.03472901 220.92647475 150.74146483 225.72938102 140.09375 237.7421875 C139.76375 238.7321875 139.43375 239.7221875 139.09375 240.7421875 C139.81353027 240.53142578 140.53331055 240.32066406 141.27490234 240.10351562 C148.86187045 238.02489422 155.86804971 237.2228508 163.71875 237.2421875 C164.77320313 237.21382812 165.82765625 237.18546875 166.9140625 237.15625 C174.369734 237.13779537 179.82562995 238.6503889 186.09375 242.7421875 C188.44934362 245.09778112 188.34940311 245.5511819 188.359375 248.7421875 C188.36356445 249.54188965 188.36775391 250.3415918 188.37207031 251.16552734 C188.36272461 252.0158252 188.35337891 252.86612305 188.34375 253.7421875 C188.33698242 254.60924316 188.33021484 255.47629883 188.32324219 256.36962891 C188.22611705 262.38122343 187.771301 267.94701131 186.09375 273.7421875 C185.825625 274.7528125 185.5575 275.7634375 185.28125 276.8046875 C182.1801012 287.76207993 177.47107055 297.23128521 170.76171875 306.4140625 C168.74447303 309.22970289 166.97564333 312.15639896 165.234375 315.1484375 C164.09375 316.7421875 164.09375 316.7421875 161.09375 318.7421875 C157.30047903 318.64008061 155.57558445 318.16942987 152.71484375 315.6328125 C151.63396484 314.32570313 151.63396484 314.32570313 150.53125 312.9921875 C149.76167969 312.08726562 148.99210937 311.18234375 148.19921875 310.25 C147.50441406 309.42242187 146.80960937 308.59484375 146.09375 307.7421875 C141.6368422 303.08269298 136.94075616 298.59072896 131.09375 295.7421875 C128.84046588 295.94861949 128.84046588 295.94861949 127.09375 296.7421875 C128.66763539 307.38013575 137.44321905 315.68567518 144.2734375 323.5 C146.50589641 326.05454762 148.69216047 328.63024921 150.78125 331.3046875 C151.21824219 331.86285156 151.65523438 332.42101562 152.10546875 332.99609375 C153.41060116 335.30199964 153.90957647 337.09418146 154.09375 339.7421875 C150.56114311 346.04159139 143.85986449 350.61705842 138.09375 354.7421875 C137.23265625 355.38027344 136.3715625 356.01835937 135.484375 356.67578125 C124.03995596 364.78487927 102.41988611 377.62102502 88.09375 375.7421875 C76.28690365 367.25470365 73.70184984 340.09727656 71.09375 326.7421875 C70.28550781 327.65871094 70.28550781 327.65871094 69.4609375 328.59375 C63.25505805 335.49997948 56.83276713 342.19554172 50.31549072 348.80755615 C49.33969969 349.80018164 48.3674386 350.79629044 47.39886475 351.79595947 C46.01045459 353.22677657 44.6069529 354.64290043 43.203125 356.05859375 C41.98061035 357.30298218 41.98061035 357.30298218 40.73339844 358.57250977 C33.27074153 364.70649348 25.88884232 364.18762766 16.5859375 364.140625 C15.17302297 364.1426488 13.76010946 364.14556279 12.34719849 364.14932251 C9.39689108 364.15372861 6.44685745 364.14736868 3.49658203 364.13330078 C-0.27736157 364.116178 -4.05066646 364.12607988 -7.82458687 364.14401817 C-10.73803493 364.15487585 -13.65133232 364.1514012 -16.564785 364.1436348 C-17.95619661 364.14163989 -19.34762209 364.14406707 -20.73901749 364.15107346 C-22.68424453 364.15872326 -24.62951987 364.14498907 -26.57470703 364.13037109 C-27.67944366 364.12798431 -28.7841803 364.12559753 -29.9223938 364.12313843 C-34.9214572 363.48490464 -38.03232012 360.87233363 -41.48730469 357.37231445 C-42.47292389 356.38162712 -42.47292389 356.38162712 -43.47845459 355.3709259 C-44.17134583 354.66457504 -44.86423706 353.95822418 -45.578125 353.23046875 C-46.30114807 352.50224411 -47.02417114 351.77401947 -47.769104 351.02372742 C-50.06963627 348.70542772 -52.36334381 346.38052807 -54.65625 344.0546875 C-56.96432195 341.71904145 -59.27382405 339.38485543 -61.58624268 337.05351257 C-63.02351872 335.6039295 -64.45811409 334.15168291 -65.88983154 332.6966095 C-66.85653778 331.72010689 -66.85653778 331.72010689 -67.84277344 330.72387695 C-68.69618317 329.85808769 -68.69618317 329.85808769 -69.5668335 328.97480774 C-70.72551025 327.62932704 -70.72551025 327.62932704 -71.90625 327.7421875 C-72.04160156 328.55816406 -72.17695313 329.37414062 -72.31640625 330.21484375 C-73.8257861 338.52095205 -75.87858977 346.58586772 -78.28125 354.6796875 C-78.56105713 355.6497876 -78.84086426 356.6198877 -79.12915039 357.61938477 C-81.26627708 364.64620895 -83.59819342 371.53681645 -89.90625 375.7421875 C-94.66332267 375.38045887 -98.93263085 373.77178202 -103.34375 372.0546875 C-104.38438599 371.6532251 -104.38438599 371.6532251 -105.44604492 371.24365234 C-106.8883755 370.68593158 -108.32986017 370.1260185 -109.77050781 369.56396484 C-111.80472778 368.78125058 -113.84832278 368.0328636 -115.8984375 367.29296875 C-124.19707028 364.23629692 -130.99805883 360.32478192 -137.90625 354.7421875 C-139.55101199 353.4699679 -141.19678585 352.19905499 -142.84375 350.9296875 C-143.53339844 350.38699219 -144.22304687 349.84429687 -144.93359375 349.28515625 C-146.31247018 348.20662914 -147.72497654 347.17035597 -149.16015625 346.16796875 C-149.73636719 345.69746094 -150.31257813 345.22695313 -150.90625 344.7421875 C-150.90625 344.0821875 -150.90625 343.4221875 -150.90625 342.7421875 C-151.89625 342.4121875 -152.88625 342.0821875 -153.90625 341.7421875 C-154.34375 338.6796875 -154.34375 338.6796875 -153.90625 334.7421875 C-152.56298828 333.11865234 -152.56298828 333.11865234 -150.7890625 331.515625 C-146.86406976 327.78139257 -143.60016082 323.75007413 -140.34375 319.4296875 C-139.78091309 318.68493164 -139.21807617 317.94017578 -138.63818359 317.17285156 C-131.00089432 308.39810767 -131.00089432 308.39810767 -128.2734375 297.9765625 C-128.48226562 297.23921875 -128.69109375 296.501875 -128.90625 295.7421875 C-139.88460225 299.51599609 -147.10134607 307.25696741 -154.1328125 316.140625 C-156.3691495 318.16022449 -157.92141899 318.5460688 -160.90625 318.7421875 C-179.19149796 304.78765616 -185.6062836 276.97294478 -188.90625 255.7421875 C-189.08050059 254.22620737 -189.21035169 252.70400127 -189.28125 251.1796875 C-189.33023438 250.45652344 -189.37921875 249.73335937 -189.4296875 248.98828125 C-188.61029768 245.47224286 -186.64188407 244.00693374 -183.90625 241.7421875 C-170.28176268 235.29917114 -152.91255657 236.04546194 -138.90625 240.7421875 C-145.27687686 229.4636759 -157.45142473 223.39146791 -169.59375 219.9296875 C-174.21502223 218.80004318 -178.88345015 218.02443864 -183.59375 217.3671875 C-186.26817651 216.64436953 -187.26649599 215.95585541 -188.90625 213.7421875 C-196.10226851 190.42136239 -182.82794708 152.45591461 -171.90625 131.7421875 C-143.75412921 80.77801644 -143.75412921 80.77801644 -123.90625 74.7421875 C-117.85761748 74.8698257 -114.66327239 76.8949659 -110.21875 80.6171875 C-109.66380859 81.06449219 -109.10886719 81.51179688 -108.53710938 81.97265625 C-106.98757462 83.22186501 -105.44662318 84.48169912 -103.90625 85.7421875 C-103.11605469 86.30164063 -102.32585937 86.86109375 -101.51171875 87.4375 C-100.98191406 87.86804688 -100.45210938 88.29859375 -99.90625 88.7421875 C-99.90625 89.4021875 -99.90625 90.0621875 -99.90625 90.7421875 C-99.32875 90.99355469 -98.75125 91.24492187 -98.15625 91.50390625 C-92.41685673 94.66256539 -87.78853854 100.56580278 -83.90625 105.7421875 C-81.14983584 105.24462658 -81.14983584 105.24462658 -78.90625 103.7421875 C-78.77339527 102.24061137 -78.70294113 100.73339716 -78.66015625 99.2265625 C-78.61084961 97.84404297 -78.61084961 97.84404297 -78.56054688 96.43359375 C-78.49983982 94.48838484 -78.4424923 92.54306788 -78.38867188 90.59765625 C-78.35451172 89.67082031 -78.32035156 88.74398437 -78.28515625 87.7890625 C-78.24757202 86.51820801 -78.24757202 86.51820801 -78.20922852 85.22167969 C-77.90625 82.7421875 -77.90625 82.7421875 -75.90625 77.7421875 C-66.99625 77.4121875 -58.08625 77.0821875 -48.90625 76.7421875 C-48.77568203 70.8049376 -48.77568203 70.8049376 -48.69848633 64.86694336 C-48.46728434 58.66688784 -47.05838452 55.38577345 -42.90625 50.7421875 C-42.24625 50.7421875 -41.58625 50.7421875 -40.90625 50.7421875 C-40.55046875 49.67484375 -40.55046875 49.67484375 -40.1875 48.5859375 C-38.689318 45.26070429 -36.79656553 42.99558893 -34.40625 40.2421875 C-30.38796245 35.54591427 -26.5571674 30.74767272 -22.81201172 25.828125 C-18.04440503 19.58310053 -13.15225225 13.43233496 -8.17675781 7.3515625 C-7.02274748 5.88975695 -5.96940231 4.3498763 -4.9296875 2.8046875 C-2.90625 0.7421875 -2.90625 0.7421875 0 0 Z M-0.90625 22.7421875 C-7.00159282 29.4228447 -12.44723899 36.54418119 -17.90625 43.7421875 C-18.55722656 44.58136719 -19.20820313 45.42054687 -19.87890625 46.28515625 C-20.69681641 47.34669922 -20.69681641 47.34669922 -21.53125 48.4296875 C-21.99789062 49.03167969 -22.46453125 49.63367188 -22.9453125 50.25390625 C-24.08705939 51.72696358 -24.08705939 51.72696358 -23.90625 53.7421875 C-8.06625 53.7421875 7.77375 53.7421875 24.09375 53.7421875 C22.11375 51.1021875 20.13375 48.4621875 18.09375 45.7421875 C16.8495134 44.06010754 15.60702118 42.37673416 14.3671875 40.69140625 C13.06776986 38.93745442 11.76828996 37.1835487 10.46875 35.4296875 C9.81390625 34.53701172 9.1590625 33.64433594 8.484375 32.72460938 C7.84757812 31.86802734 7.21078125 31.01144531 6.5546875 30.12890625 C5.98540527 29.35764404 5.41612305 28.58638184 4.82958984 27.79174805 C3.08446558 25.7312251 1.31247251 24.26698981 -0.90625 22.7421875 Z M-32.90625 67.7421875 C-33.23625 74.0121875 -33.56625 80.2821875 -33.90625 86.7421875 C-34.23625 88.3921875 -34.56625 90.0421875 -34.90625 91.7421875 C-44.14625 91.7421875 -53.38625 91.7421875 -62.90625 91.7421875 C-64.35939664 94.13686361 -64.35939664 94.13686361 -62.90625 98.7421875 C-50.36625 98.7421875 -37.82625 98.7421875 -24.90625 98.7421875 C-24.57625 92.8021875 -24.24625 86.8621875 -23.90625 80.7421875 C-23.57625 80.0821875 -23.24625 79.4221875 -22.90625 78.7421875 C-16.65829325 78.71691626 -10.41034959 78.69935406 -4.16235352 78.68725586 C-2.03506986 78.68221452 0.09221031 78.67538159 2.21948242 78.66674805 C5.27002826 78.65467371 8.32052845 78.64895736 11.37109375 78.64453125 C12.80702126 78.63678932 12.80702126 78.63678932 14.2719574 78.62889099 C15.15279495 78.62881546 16.03363251 78.62873993 16.94116211 78.62866211 C17.72059677 78.6264415 18.50003143 78.62422089 19.30308533 78.62193298 C21.09375 78.7421875 21.09375 78.7421875 22.09375 79.7421875 C22.58875 89.1471875 22.58875 89.1471875 23.09375 98.7421875 C36.29375 98.7421875 49.49375 98.7421875 63.09375 98.7421875 C63.09375 96.4321875 63.09375 94.1221875 63.09375 91.7421875 C62.25078369 91.71713135 61.40781738 91.6920752 60.53930664 91.66625977 C57.42133326 91.57130595 54.30353497 91.47206302 51.18579102 91.36987305 C49.83460853 91.32647527 48.48336947 91.2848038 47.13208008 91.24487305 C45.19338299 91.18728798 43.25488724 91.12304452 41.31640625 91.05859375 C40.14859619 91.02193604 38.98078613 90.98527832 37.77758789 90.94750977 C35.09375 90.7421875 35.09375 90.7421875 34.09375 89.7421875 C33.76375 82.4821875 33.43375 75.2221875 33.09375 67.7421875 C11.31375 67.7421875 -10.46625 67.7421875 -32.90625 67.7421875 Z M-121.90625 90.7421875 C-123.9462219 92.10542493 -123.9462219 92.10542493 -125.90625 93.7421875 C-125.90625 94.4021875 -125.90625 95.0621875 -125.90625 95.7421875 C-126.89625 96.0721875 -127.88625 96.4021875 -128.90625 96.7421875 C-130.65478922 98.46736274 -130.65478922 98.46736274 -132.34375 100.5546875 C-134.28592334 102.85484618 -136.1845416 105.01334342 -138.34375 107.1171875 C-140.13728624 108.60674251 -140.13728624 108.60674251 -139.90625 110.7421875 C-140.56625 110.7421875 -141.22625 110.7421875 -141.90625 110.7421875 C-140.76905581 114.15377006 -139.86282056 114.86073351 -136.90625 116.7421875 C-136.24625 116.7421875 -135.58625 116.7421875 -134.90625 116.7421875 C-134.90625 117.4021875 -134.90625 118.0621875 -134.90625 118.7421875 C-133.12028683 120.27749575 -133.12028683 120.27749575 -130.84375 121.8671875 C-126.7346329 124.9457847 -123.52335127 128.24286747 -120.31640625 132.23828125 C-119.85105469 132.73457031 -119.38570312 133.23085937 -118.90625 133.7421875 C-118.24625 133.7421875 -117.58625 133.7421875 -116.90625 133.7421875 C-116.638125 134.3196875 -116.37 134.8971875 -116.09375 135.4921875 C-114.87695811 137.79768793 -113.60291121 139.76274942 -111.90625 141.7421875 C-111.24625 141.7421875 -110.58625 141.7421875 -109.90625 141.7421875 C-109.67164063 142.25265625 -109.43703125 142.763125 -109.1953125 143.2890625 C-107.42535803 146.65733949 -105.35466365 149.80431402 -103.28125 152.9921875 C-102.86101562 153.641875 -102.44078125 154.2915625 -102.0078125 154.9609375 C-100.97579327 156.55587631 -99.94126972 158.14919419 -98.90625 159.7421875 C-97.91625 159.4121875 -96.92625 159.0821875 -95.90625 158.7421875 C-94.93241159 156.97241306 -94.93241159 156.97241306 -94.90625 154.7421875 C-99.34873203 143.17241908 -108.29082453 132.22926283 -116.47265625 123.05859375 C-118.28385674 120.13204909 -118.17367799 118.12150482 -117.90625 114.7421875 C-116.25625 114.4121875 -114.60625 114.0821875 -112.90625 113.7421875 C-112.90625 114.4021875 -112.90625 115.0621875 -112.90625 115.7421875 C-111.76234737 116.88609013 -110.61483458 118.02652969 -109.453125 119.15234375 C-100.72426529 128.12367179 -94.20495296 139.48244371 -88.90625 150.7421875 C-86.73750748 150.23614758 -84.90657373 149.74234937 -82.90625 148.7421875 C-82.4440797 142.6204581 -83.89723143 138.44551011 -86.46875 132.9296875 C-86.83299072 132.13433594 -87.19723145 131.33898437 -87.57250977 130.51953125 C-94.53113391 115.70351741 -107.40740441 98.73711831 -121.90625 90.7421875 Z M-11.90625 90.7421875 C-11.90625 93.7121875 -11.90625 96.6821875 -11.90625 99.7421875 C-4.31625 99.7421875 3.27375 99.7421875 11.09375 99.7421875 C11.09375 96.7721875 11.09375 93.8021875 11.09375 90.7421875 C3.50375 90.7421875 -4.08625 90.7421875 -11.90625 90.7421875 Z M113.09375 96.7421875 C113.09375 97.4021875 113.09375 98.0621875 113.09375 98.7421875 C112.52398437 98.98710937 111.95421875 99.23203125 111.3671875 99.484375 C104.21463538 103.44162892 98.60419216 111.04601286 94.09375 117.7421875 C93.60261719 118.46664062 93.11148437 119.19109375 92.60546875 119.9375 C89.43098191 124.90840187 86.95873514 130.05155693 84.71875 135.4921875 C84.45578125 136.11810791 84.1928125 136.74402832 83.921875 137.38891602 C82.36993449 141.31413651 81.8227094 144.53460479 82.09375 148.7421875 C84.07375 149.4021875 86.05375 150.0621875 88.09375 150.7421875 C88.56683594 149.71480469 89.03992188 148.68742187 89.52734375 147.62890625 C93.3957061 139.45115659 97.34457723 132.55967461 103.40625 125.78125 C105.30627257 123.92651901 105.30627257 123.92651901 105.09375 121.7421875 C105.75375 121.7421875 106.41375 121.7421875 107.09375 121.7421875 C107.8775 120.9171875 108.66125 120.0921875 109.46875 119.2421875 C112.09375 116.7421875 112.09375 116.7421875 116.09375 116.7421875 C116.20140149 122.55536772 115.09278807 125.18027487 111.09375 129.4296875 C110.28679687 130.26371094 109.47984375 131.09773438 108.6484375 131.95703125 C105.87611609 134.97945505 103.53488078 138.11690941 101.21875 141.4921875 C100.49945313 142.53890625 99.78015625 143.585625 99.0390625 144.6640625 C94.69580986 151.20605712 94.69580986 151.20605712 94.09375 158.7421875 C95.08375 159.4021875 96.07375 160.0621875 97.09375 160.7421875 C98.43280267 158.9547913 99.76484066 157.16213797 101.09375 155.3671875 C101.83625 154.36945313 102.57875 153.37171875 103.34375 152.34375 C105.2797985 149.98817033 105.2797985 149.98817033 105.09375 147.7421875 C105.75375 147.7421875 106.41375 147.7421875 107.09375 147.7421875 C108.43564954 145.97653021 109.76995745 144.20485497 111.078125 142.4140625 C119.84254087 130.79611589 129.41137082 121.42131354 141.09375 112.7421875 C139.6791792 108.2412804 137.47544453 105.97016864 134.09375 102.7421875 C132.51184752 100.88043987 130.96129228 98.99780051 129.42578125 97.09765625 C128.98621094 96.65035156 128.54664063 96.20304687 128.09375 95.7421875 C127.43375 95.7421875 126.77375 95.7421875 126.09375 95.7421875 C126.09375 95.0821875 126.09375 94.4221875 126.09375 93.7421875 C120.14402288 89.77570275 117.53355379 92.50419297 113.09375 96.7421875 Z M-67.90625 113.7421875 C-67.90625 122.9821875 -67.90625 132.2221875 -67.90625 141.7421875 C-62.95625 141.7421875 -58.00625 141.7421875 -52.90625 141.7421875 C-52.90625 139.1021875 -52.90625 136.4621875 -52.90625 133.7421875 C-55.21625 133.0821875 -57.52625 132.4221875 -59.90625 131.7421875 C-60.00390625 125.58984375 -60.00390625 125.58984375 -59.90625 123.7421875 C-58.90625 122.7421875 -58.90625 122.7421875 -55.08984375 122.64453125 C-53.50778318 122.65120661 -51.92573841 122.66316875 -50.34375 122.6796875 C-49.53744141 122.68419922 -48.73113281 122.68871094 -47.90039062 122.69335938 C-45.90231244 122.70518232 -43.90427217 122.72311836 -41.90625 122.7421875 C-40.32027304 125.91414141 -40.8458345 129.32777522 -40.90625 132.8046875 C-40.95209426 135.45677781 -40.9532664 138.08869944 -40.90625 140.7421875 C-40.57625 141.0721875 -40.24625 141.4021875 -39.90625 141.7421875 C-37.59625 141.7421875 -35.28625 141.7421875 -32.90625 141.7421875 C-32.90625 132.5021875 -32.90625 123.2621875 -32.90625 113.7421875 C-44.45625 113.7421875 -56.00625 113.7421875 -67.90625 113.7421875 Z M-22.90625 113.7421875 C-22.90625 122.9821875 -22.90625 132.2221875 -22.90625 141.7421875 C-16.63625 141.7421875 -10.36625 141.7421875 -3.90625 141.7421875 C-3.90625 139.1021875 -3.90625 136.4621875 -3.90625 133.7421875 C-4.61652344 133.69320312 -5.32679688 133.64421875 -6.05859375 133.59375 C-6.97769531 133.51898438 -7.89679688 133.44421875 -8.84375 133.3671875 C-9.76027344 133.29757813 -10.67679688 133.22796875 -11.62109375 133.15625 C-12.37519531 133.01960938 -13.12929688 132.88296875 -13.90625 132.7421875 C-15.39731457 129.76005837 -15.02566467 127.02609092 -14.90625 123.7421875 C-13.07405354 121.90999104 -10.14911259 122.50317422 -7.68359375 122.42578125 C-6.42353516 122.38388672 -5.16347656 122.34199219 -3.86523438 122.29882812 C-2.52474264 122.25901154 -1.1842478 122.21929936 0.15625 122.1796875 C1.50066523 122.13650708 2.8450666 122.09289294 4.18945312 122.04882812 C7.4907734 121.94233392 10.79217236 121.8403229 14.09375 121.7421875 C14.09375 125.0421875 14.09375 128.3421875 14.09375 131.7421875 C11.78375 132.4021875 9.47375 133.0621875 7.09375 133.7421875 C7.09375 136.3821875 7.09375 139.0221875 7.09375 141.7421875 C12.37375 141.7421875 17.65375 141.7421875 23.09375 141.7421875 C23.12087309 138.3879658 23.1406487 135.03396639 23.15625 131.6796875 C23.16881836 130.26526367 23.16881836 130.26526367 23.18164062 128.82226562 C23.18486328 127.89736328 23.18808594 126.97246094 23.19140625 126.01953125 C23.19664307 125.17640381 23.20187988 124.33327637 23.20727539 123.46459961 C23.07136754 120.20544161 22.55506512 116.97139331 22.09375 113.7421875 C7.24375 113.7421875 -7.60625 113.7421875 -22.90625 113.7421875 Z M32.09375 113.7421875 C32.42375 122.9821875 32.75375 132.2221875 33.09375 141.7421875 C35.07375 141.7421875 37.05375 141.7421875 39.09375 141.7421875 C39.15433594 140.45441406 39.21492187 139.16664063 39.27734375 137.83984375 C39.36173247 136.16144591 39.4463813 134.48306114 39.53125 132.8046875 C39.59022461 131.52948242 39.59022461 131.52948242 39.65039062 130.22851562 C39.69228516 129.41962891 39.73417969 128.61074219 39.77734375 127.77734375 C39.83233032 126.65404663 39.83233032 126.65404663 39.88842773 125.50805664 C40.09375 123.7421875 40.09375 123.7421875 41.09375 122.7421875 C43.95642567 122.66893582 46.794469 122.64980545 49.65625 122.6796875 C50.46255859 122.68419922 51.26886719 122.68871094 52.09960938 122.69335938 C54.09768756 122.70518232 56.09572783 122.72311836 58.09375 122.7421875 C58.09375 126.0421875 58.09375 129.3421875 58.09375 132.7421875 C56.11375 133.0721875 54.13375 133.4021875 52.09375 133.7421875 C52.09375 136.3821875 52.09375 139.0221875 52.09375 141.7421875 C57.37375 141.7421875 62.65375 141.7421875 68.09375 141.7421875 C68.09375 132.5021875 68.09375 123.2621875 68.09375 113.7421875 C56.21375 113.7421875 44.33375 113.7421875 32.09375 113.7421875 Z M-151.90625 124.7421875 C-157.25953674 135.28530585 -157.25953674 135.28530585 -162.40625 145.9296875 C-162.7053125 146.56261719 -163.004375 147.19554687 -163.3125 147.84765625 C-164.11662152 150.41343872 -164.38358391 152.07079248 -163.90625 154.7421875 C-161.50926914 156.7763829 -161.50926914 156.7763829 -158.28125 158.4296875 C-157.07569043 159.1233903 -155.87264248 159.82147247 -154.671875 160.5234375 C-154.04732422 160.88566406 -153.42277344 161.24789062 -152.77929688 161.62109375 C-135.85026263 171.75380038 -120.49428334 185.6365475 -107.90625 200.7421875 C-106.61295074 197.87803987 -106.61295074 197.87803987 -107.65625 195.578125 C-111.79835285 187.42336001 -116.46422181 180.22578722 -123.90625 174.7421875 C-125.5869333 173.08965635 -127.25173943 171.42092224 -128.90625 169.7421875 C-129.74285156 168.90558594 -130.57945312 168.06898438 -131.44140625 167.20703125 C-135.26302083 163.38541667 -139.08463542 159.56380208 -142.90625 155.7421875 C-142.24625 154.4221875 -141.58625 153.1021875 -140.90625 151.7421875 C-136.86011965 152.28357114 -134.56592693 153.43329421 -131.40625 155.9921875 C-130.6740625 156.57484375 -129.941875 157.1575 -129.1875 157.7578125 C-124.38827816 161.93247807 -120.13099821 166.61837467 -115.84375 171.3046875 C-112.59506449 174.85350126 -109.3424284 178.37193099 -105.90625 181.7421875 C-104.90891367 173.05111374 -107.9524717 168.68144809 -112.90625 161.7421875 C-114.01353811 160.01501801 -115.11798164 158.28601947 -116.21875 156.5546875 C-117.55107703 154.38499494 -117.55107703 154.38499494 -118.90625 152.7421875 C-119.56625 152.7421875 -120.22625 152.7421875 -120.90625 152.7421875 C-121.09316406 152.06800781 -121.28007812 151.39382812 -121.47265625 150.69921875 C-123.50991606 146.49702345 -126.53004101 143.6737157 -129.84375 140.4296875 C-130.5130957 139.76831787 -131.18244141 139.10694824 -131.87207031 138.42553711 C-140.69631464 129.0646677 -140.69631464 129.0646677 -151.90625 124.7421875 Z M141.34375 129.8046875 C140.71122314 130.31128906 140.07869629 130.81789062 139.42700195 131.33984375 C131.29021736 137.92571457 124.29271007 145.26605843 118.09375 153.7421875 C118.09375 154.4021875 118.09375 155.0621875 118.09375 155.7421875 C117.43375 155.7421875 116.77375 155.7421875 116.09375 155.7421875 C114.49788754 157.94245309 113.03208402 160.12973166 111.59375 162.4296875 C111.19027344 163.05552734 110.78679687 163.68136719 110.37109375 164.32617188 C106.60727149 170.25760795 104.81175852 174.55140488 105.09375 181.7421875 C107.82032838 179.09351136 110.38504572 176.44465349 112.78125 173.4921875 C115.09375 170.7421875 115.09375 170.7421875 117.09375 169.7421875 C117.09375 169.0821875 117.09375 168.4221875 117.09375 167.7421875 C118.57875 167.2471875 118.57875 167.2471875 120.09375 166.7421875 C120.09375 166.0821875 120.09375 165.4221875 120.09375 164.7421875 C121.57875 164.2471875 121.57875 164.2471875 123.09375 163.7421875 C123.09375 163.0821875 123.09375 162.4221875 123.09375 161.7421875 C123.96386719 161.34386719 123.96386719 161.34386719 124.8515625 160.9375 C127.16043429 159.70663803 128.96038489 158.28679223 130.96875 156.6171875 C133.8577326 154.38823463 134.84732865 153.76858979 138.59375 153.3671875 C139.41875 153.4909375 140.24375 153.6146875 141.09375 153.7421875 C141.58875 155.2271875 141.58875 155.2271875 142.09375 156.7421875 C138.57495559 160.48090656 134.87428168 163.46340468 130.66796875 166.41015625 C130.14847656 166.84972656 129.62898438 167.28929687 129.09375 167.7421875 C129.09375 168.4021875 129.09375 169.0621875 129.09375 169.7421875 C127.60875 170.2371875 127.60875 170.2371875 126.09375 170.7421875 C126.09375 171.4021875 126.09375 172.0621875 126.09375 172.7421875 C125.50335938 172.99871094 124.91296875 173.25523437 124.3046875 173.51953125 C116.68708447 177.73209264 109.69384197 188.57235536 107.09375 196.7421875 C107.42375 197.7321875 107.75375 198.7221875 108.09375 199.7421875 C111.62780574 196.30223384 115.06431546 192.84986656 118.21875 189.0546875 C120.60344954 186.21455463 123.14715697 184.00879753 126.09375 181.7421875 C126.85816406 180.97132813 127.62257813 180.20046875 128.41015625 179.40625 C137.06091391 170.81845273 146.72105894 163.79528718 157.54296875 158.26953125 C160.16327421 156.70055815 162.03525753 154.98387134 164.09375 152.7421875 C161.5368898 144.89059025 158.933407 137.79769938 154.42578125 130.828125 C153.16316875 128.85089604 152.10358781 126.85758234 151.09375 124.7421875 C146.8009851 124.7421875 144.54256011 127.21714969 141.34375 129.8046875 Z M-83.90625 166.7421875 C-86.02134094 170.02260922 -86.02134094 170.02260922 -87.65625 173.6171875 C-88.22859375 174.79023438 -88.8009375 175.96328125 -89.390625 177.171875 C-91.47494578 182.08184715 -93.22028154 186.79228858 -93.03125 192.1796875 C-92.99 193.3553125 -92.94875 194.5309375 -92.90625 195.7421875 C-90.59625 195.7421875 -88.28625 195.7421875 -85.90625 195.7421875 C-85.60332031 194.74058594 -85.30039063 193.73898438 -84.98828125 192.70703125 C-80.17811628 177.26019502 -80.17811628 177.26019502 -73.78125 171.9921875 C-65.34715193 168.32518834 -57.21321233 167.30265241 -48.09179688 167.36987305 C-46.96669205 167.36622238 -45.84158722 167.36257172 -44.68238831 167.35881042 C-40.99643432 167.3507639 -37.31092817 167.36426632 -33.625 167.37890625 C-31.04390463 167.37942556 -28.46280885 167.37890511 -25.88171387 167.37739563 C-20.48536759 167.37748509 -15.08918241 167.38751702 -9.69287109 167.40600586 C-3.48132122 167.42716794 2.73004363 167.43068115 8.94162226 167.4244439 C14.95215289 167.41872078 20.96260244 167.42453772 26.97312927 167.43561745 C29.51508831 167.43945008 32.05705286 167.44062575 34.59901428 167.4390316 C38.15921388 167.43865824 41.7191388 167.45135683 45.27929688 167.4675293 C46.31650375 167.46505188 47.35371063 167.46257446 48.42234802 167.46002197 C57.78080065 167.52742479 66.50077236 167.90143547 74.09375 173.7421875 C74.75375 173.7421875 75.41375 173.7421875 76.09375 173.7421875 C76.51140625 174.58523437 76.51140625 174.58523437 76.9375 175.4453125 C77.71259055 176.98501939 78.50453092 178.51635155 79.3125 180.0390625 C82.03065738 185.24333944 83.92141064 189.98706699 85.09375 195.7421875 C87.40375 195.7421875 89.71375 195.7421875 92.09375 195.7421875 C91.74436039 183.46114275 89.80932771 173.8528714 81.09375 164.7421875 C80.10375 164.4121875 79.11375 164.0821875 78.09375 163.7421875 C78.09375 163.0821875 78.09375 162.4221875 78.09375 161.7421875 C76.4908447 160.92720188 74.88637722 160.11528823 73.28125 159.3046875 C72.38792969 158.85222656 71.49460937 158.39976562 70.57421875 157.93359375 C66.86679558 156.15286293 64.08432627 155.61593738 60.01683044 155.60847473 C58.96697464 155.60420975 57.91711884 155.59994476 56.83544922 155.59555054 C55.10790405 155.59623032 55.10790405 155.59623032 53.34545898 155.59692383 C52.13213394 155.59356522 50.9188089 155.5902066 49.66871643 155.58674622 C46.33773126 155.57886416 43.00680842 155.57556793 39.6758182 155.57493043 C37.59173297 155.57421939 35.50765425 155.57208395 33.42357063 155.56943321 C26.14362296 155.56017595 18.8636936 155.55609836 11.58374023 155.55688477 C4.81454348 155.55748404 -1.95457319 155.54696284 -8.7237497 155.5311411 C-14.54557815 155.51802223 -20.3673806 155.51270276 -26.18922371 155.51334018 C-29.66149739 155.51359411 -33.13370007 155.51080192 -36.60595894 155.50016212 C-40.48806946 155.48859237 -44.37007237 155.49325447 -48.25219727 155.49926758 C-49.38972443 155.49364807 -50.52725159 155.48802856 -51.69924927 155.48223877 C-64.41500612 155.53210448 -74.61111232 157.40191269 -83.90625 166.7421875 Z M-169.90625 168.7421875 C-172.27934175 171.11527925 -172.0130542 176.35171122 -172.46875 179.5546875 C-172.67334839 180.98107544 -172.67334839 180.98107544 -172.88208008 182.4362793 C-173.81398185 189.26654372 -174.29178257 195.84543826 -173.90625 202.7421875 C-172.83375 203.1340625 -171.76125 203.5259375 -170.65625 203.9296875 C-158.54598578 208.50040451 -146.75184973 213.15884414 -136.90625 221.7421875 C-136.24625 221.7421875 -135.58625 221.7421875 -134.90625 221.7421875 C-134.90625 222.4021875 -134.90625 223.0621875 -134.90625 223.7421875 C-133.71924492 225.51264734 -133.71924492 225.51264734 -131.90625 226.7421875 C-129.74325789 226.51461019 -129.74325789 226.51461019 -127.90625 225.7421875 C-127.52311516 221.90033368 -127.52311516 221.90033368 -129.2421875 219.83984375 C-136.49938498 212.59654894 -144.76838029 206.85699567 -153.16967773 201.01977539 C-154.90625 199.7421875 -154.90625 199.7421875 -156.90625 197.7421875 C-157.03125 195.1171875 -157.03125 195.1171875 -156.90625 192.7421875 C-149.53692416 193.96474847 -144.97727372 197.19137147 -139.15625 201.7421875 C-137.49675089 203.01557819 -135.83536201 204.2865108 -134.171875 205.5546875 C-133.44774414 206.11800781 -132.72361328 206.68132812 -131.97753906 207.26171875 C-130.01728164 208.66282683 -128.08974199 209.73347571 -125.90625 210.7421875 C-125.90625 211.4021875 -125.90625 212.0621875 -125.90625 212.7421875 C-123.02045926 215.95231784 -120.3141477 218.56245588 -115.96875 219.1171875 C-115.288125 218.9934375 -114.6075 218.8696875 -113.90625 218.7421875 C-113.90625 213.59391186 -116.14254545 211.62765113 -119.40625 207.9921875 C-119.95506836 207.36820068 -120.50388672 206.74421387 -121.06933594 206.10131836 C-130.31674944 195.66746984 -140.54465986 185.87269345 -151.90625 177.7421875 C-152.56625 177.7421875 -153.22625 177.7421875 -153.90625 177.7421875 C-153.90625 177.0821875 -153.90625 176.4221875 -153.90625 175.7421875 C-155.63065365 174.75465686 -157.36100026 173.77749944 -159.09375 172.8046875 C-160.05667969 172.25941406 -161.01960938 171.71414062 -162.01171875 171.15234375 C-164.72552982 169.83023067 -166.91675442 169.07671365 -169.90625 168.7421875 Z M168.09375 168.7421875 C160.89722378 171.7822154 154.46032085 175.21926946 148.09375 179.7421875 C147.10375 180.4021875 146.11375 181.0621875 145.09375 181.7421875 C145.09375 182.4021875 145.09375 183.0621875 145.09375 183.7421875 C144.51052979 184.00539795 143.92730957 184.2686084 143.32641602 184.53979492 C139.34528806 186.68381408 136.29533406 189.96162366 133.03125 193.0546875 C131.90203125 194.121427 131.90203125 194.121427 130.75 195.2097168 C119.64108497 205.22157491 119.64108497 205.22157491 112.09375 217.7421875 C114.07375 218.4021875 116.05375 219.0621875 118.09375 219.7421875 C118.55523437 219.17371094 119.01671875 218.60523438 119.4921875 218.01953125 C123.92678614 212.76987792 128.38935565 208.84604113 134.1875 205.15234375 C134.8165625 204.68699219 135.445625 204.22164062 136.09375 203.7421875 C136.09375 203.0821875 136.09375 202.4221875 136.09375 201.7421875 C137.13595703 201.34386719 137.13595703 201.34386719 138.19921875 200.9375 C141.35051076 199.63615674 144.36375171 198.15515367 147.40625 196.6171875 C149.00919922 195.80894531 149.00919922 195.80894531 150.64453125 194.984375 C151.45277344 194.57445312 152.26101563 194.16453125 153.09375 193.7421875 C154.08375 194.4021875 155.07375 195.0621875 156.09375 195.7421875 C155.91796875 197.515625 155.91796875 197.515625 155.09375 199.7421875 C152.86328125 201.53125 152.86328125 201.53125 149.90625 203.3671875 C148.82988281 204.05683594 147.75351562 204.74648437 146.64453125 205.45703125 C146.06912598 205.82425293 145.4937207 206.19147461 144.90087891 206.56982422 C141.74659602 208.616145 138.66680359 210.76396284 135.59375 212.9296875 C135.00698486 213.3333252 134.42021973 213.73696289 133.81567383 214.15283203 C130.28003143 216.65152285 127.63273211 219.2386411 125.09375 222.7421875 C126.74375 224.3921875 128.39375 226.0421875 130.09375 227.7421875 C131.393125 226.288125 131.393125 226.288125 132.71875 224.8046875 C143.77685802 213.83522162 159.19784209 206.72083645 174.09375 202.7421875 C173.70312738 195.11831152 172.87600601 187.64851591 171.65625 180.1171875 C171.53403076 179.33553223 171.41181152 178.55387695 171.28588867 177.74853516 C170.68087877 174.15307018 170.14239149 171.81514974 168.09375 168.7421875 Z M-70.21875 185.9921875 C-72.15766882 189.15190707 -72.94792466 192.17671506 -73.90625 195.7421875 C-73.14869919 195.73552567 -72.39114838 195.72886383 -71.61064148 195.72200012 C-64.47426557 195.66190918 -57.3380122 195.61622359 -50.20144939 195.58675098 C-46.53238324 195.57108945 -42.86352599 195.54984275 -39.19458008 195.51586914 C-35.65436053 195.48329236 -32.11434201 195.46533816 -28.57398415 195.45755577 C-26.56477345 195.44930826 -24.55564372 195.42588613 -22.54655457 195.40229797 C-20.71499565 195.40195808 -20.71499565 195.40195808 -18.84643555 195.40161133 C-17.23094063 195.39161858 -17.23094063 195.39161858 -15.58280945 195.38142395 C-12.90625 195.7421875 -12.90625 195.7421875 -11.1599884 197.01347351 C-8.52100381 200.65223067 -7.65451321 203.17480013 -7.77099609 207.69433594 C-7.79116791 208.67505066 -7.81133972 209.65576538 -7.8321228 210.66619873 C-7.86431915 211.71736877 -7.8965155 212.76853882 -7.9296875 213.8515625 C-7.95471344 214.93350891 -7.97973938 216.01545532 -8.00552368 217.13018799 C-8.08766848 220.5845091 -8.18428063 224.03825384 -8.28125 227.4921875 C-8.33949512 229.8346119 -8.39679827 232.17705993 -8.453125 234.51953125 C-8.59323914 240.26073553 -8.74523189 246.00153353 -8.90625 251.7421875 C-9.76089844 251.73058594 -10.61554688 251.71898437 -11.49609375 251.70703125 C-12.60082031 251.69800781 -13.70554687 251.68898438 -14.84375 251.6796875 C-15.94589844 251.66808594 -17.04804688 251.65648437 -18.18359375 251.64453125 C-20.82072634 251.42956179 -20.82072634 251.42956179 -21.90625 252.7421875 C-21.97851502 254.59506252 -21.9900622 256.45052628 -21.96875 258.3046875 C-21.95972656 259.31660156 -21.95070313 260.32851563 -21.94140625 261.37109375 C-21.92980469 262.15355469 -21.91820312 262.93601562 -21.90625 263.7421875 C-20.72869141 263.79826172 -20.72869141 263.79826172 -19.52734375 263.85546875 C-10.644293 264.41134064 -10.644293 264.41134064 -6.28125 266.3671875 C-1.70994444 268.22957125 2.32602039 267.90143437 7.09375 266.7421875 C7.75375 266.0821875 8.41375 265.4221875 9.09375 264.7421875 C11.28666082 264.28556597 13.49960889 263.9217755 15.71875 263.6171875 C16.90726562 263.44960938 18.09578125 263.28203125 19.3203125 263.109375 C20.23554688 262.98820312 21.15078125 262.86703125 22.09375 262.7421875 C21.76375 259.4421875 21.43375 256.1421875 21.09375 252.7421875 C18.27580059 252.07914058 15.81374644 251.7421875 12.90625 251.7421875 C10.09375 251.7421875 10.09375 251.7421875 8.09375 250.7421875 C8.04306827 243.55227669 8.00802412 236.3624119 7.98388672 229.17236328 C7.97382496 226.72605671 7.96017419 224.27976217 7.94287109 221.83349609 C7.91863081 218.31865468 7.90726862 214.8039722 7.8984375 211.2890625 C7.88811493 210.1941449 7.87779236 209.09922729 7.86715698 207.97113037 C7.86700592 206.95037415 7.86685486 205.92961792 7.86669922 204.87792969 C7.862258 203.98080261 7.85781677 203.08367554 7.85324097 202.15936279 C8.09375 199.7421875 8.09375 199.7421875 10.09375 195.7421875 C30.88375 195.7421875 51.67375 195.7421875 73.09375 195.7421875 C70.58239961 187.22508235 70.58239961 187.22508235 65.09375 181.7421875 C62.13347981 180.75543077 60.19823848 180.61200589 57.11053467 180.60174561 C55.56711143 180.59318039 55.56711143 180.59318039 53.99250793 180.58444214 C52.86415024 180.58332428 51.73579254 180.58220642 50.57324219 180.58105469 C49.38435898 180.57608978 48.19547577 180.57112488 46.9705658 180.56600952 C43.70797498 180.55390012 40.44542001 180.54644227 37.18281078 180.54199886 C35.14297141 180.53906587 33.10313764 180.53496059 31.06330109 180.53049469 C24.67688897 180.51682097 18.29048968 180.50715431 11.90406394 180.5032928 C4.54003716 180.49881541 -2.82380369 180.48128197 -10.18777394 180.4522922 C-15.88471582 180.43064633 -21.58160551 180.42058693 -27.27858806 180.41925168 C-30.6787104 180.41820551 -34.07865795 180.41233839 -37.47873688 180.39443207 C-41.27535569 180.37737346 -45.07152245 180.37925185 -48.86816406 180.38574219 C-50.54855522 180.37192001 -50.54855522 180.37192001 -52.26289368 180.3578186 C-59.4017828 180.39603865 -64.88141141 180.79910131 -70.21875 185.9921875 Z M106.09375 199.7421875 C107.09375 201.7421875 107.09375 201.7421875 107.09375 201.7421875 Z M-75.90625 209.7421875 C-75.90625 219.3121875 -75.90625 228.8821875 -75.90625 238.7421875 C-75.24625 238.7421875 -74.58625 238.7421875 -73.90625 238.7421875 C-73.90625 239.4021875 -73.90625 240.0621875 -73.90625 240.7421875 C-72.28825498 242.37894258 -72.28825498 242.37894258 -70.21875 244.0546875 C-60.68405297 252.20313425 -60.68405297 252.20313425 -59.90625 256.7421875 C-59.80702458 258.70123697 -59.7607638 260.66323325 -59.74853516 262.62475586 C-59.73827301 263.80956039 -59.72801086 264.99436493 -59.71743774 266.21507263 C-59.71013641 267.49116898 -59.70283508 268.76726532 -59.6953125 270.08203125 C-59.67443278 272.09000036 -59.65353571 274.09796947 -59.63161278 276.10592747 C-59.57850397 281.05386796 -59.53421037 286.00181148 -59.50488281 290.94995117 C-59.48797657 293.72813355 -59.46327974 296.50603818 -59.43002319 299.28407288 C-59.39904288 301.89938622 -59.379633 304.51486753 -59.37295532 307.13035583 C-59.34810562 308.91229088 -59.34810562 308.91229088 -59.32275391 310.73022461 C-59.31062363 312.29431313 -59.31062363 312.29431313 -59.29824829 313.88999939 C-58.47913879 319.84985795 -54.39477619 323.55135501 -50.28515625 327.62890625 C-49.47340187 328.44353081 -49.47340187 328.44353081 -48.64524841 329.27461243 C-47.50545747 330.41575851 -46.36316033 331.55440629 -45.21850586 332.69067383 C-43.47078401 334.42766598 -41.73401291 336.17509583 -39.99804688 337.92382812 C-38.88605753 339.03449616 -37.7734481 340.1445438 -36.66015625 341.25390625 C-36.14336807 341.77474289 -35.6265799 342.29557953 -35.09413147 342.8321991 C-30.69974604 347.17010804 -27.81522934 348.97314951 -21.62207031 349.06445312 C-20.56707336 349.08366821 -19.51207642 349.1028833 -18.42510986 349.12268066 C-17.28966736 349.13118042 -16.15422485 349.13968018 -14.984375 349.1484375 C-13.81042175 349.15983765 -12.63646851 349.17123779 -11.42694092 349.1829834 C-8.94221598 349.20187363 -6.45744104 349.21494751 -3.97265625 349.22265625 C-0.18399863 349.24204549 3.60247776 349.30408458 7.390625 349.3671875 C9.80727881 349.38025071 12.22394811 349.39075042 14.640625 349.3984375 C16.33164337 349.43547791 16.33164337 349.43547791 18.05682373 349.4732666 C25.52053527 349.43130479 29.7612952 348.0165151 35.09375 342.7421875 C36.7122676 341.08682959 38.28395206 339.38294736 39.78125 337.6171875 C42.66423286 334.23350377 45.5642872 331.44810898 49.09375 328.7421875 C50.86652259 327.22210908 50.86652259 327.22210908 52.09375 325.7421875 C52.09375 325.0821875 52.09375 324.4221875 52.09375 323.7421875 C52.691875 323.5153125 53.29 323.2884375 53.90625 323.0546875 C56.7669163 321.33828772 57.62180911 319.72779793 59.09375 316.7421875 C59.5215779 313.74591658 59.5215779 313.74591658 59.4309082 310.50244141 C59.43133621 309.26410553 59.43176422 308.02576965 59.4322052 306.74990845 C59.42578318 306.09328846 59.41936115 305.43666847 59.41274452 304.76015091 C59.39428194 302.6908063 59.39706124 300.6224684 59.4058075 298.55307007 C59.42755624 292.67259024 59.41675319 286.79250042 59.37866211 280.91210938 C59.35679574 277.30743133 59.36416653 273.70374501 59.3891201 270.09910202 C59.39269843 268.73165564 59.38513267 267.3641301 59.36586952 265.99681473 C59.19986453 253.98012326 59.19986453 253.98012326 62.99365234 249.48535156 C63.99614858 248.53722088 65.02725925 247.61771476 66.09375 246.7421875 C66.85300781 246.02289063 67.61226562 245.30359375 68.39453125 244.5625 C69.05839844 244.00304687 69.72226562 243.44359375 70.40625 242.8671875 C71.08300781 242.29226563 71.75976562 241.71734375 72.45703125 241.125 C72.99714844 240.66867187 73.53726563 240.21234375 74.09375 239.7421875 C75.41150285 238.65030767 75.41150285 238.65030767 75.20727539 235.96655273 C75.20203857 234.75684814 75.19680176 233.54714355 75.19140625 232.30078125 C75.18818359 230.99560547 75.18496094 229.69042969 75.18164062 228.34570312 C75.17328401 226.9570306 75.16481905 225.56835873 75.15625 224.1796875 C75.15123666 222.78711094 75.14667347 221.39453269 75.14257812 220.00195312 C75.13074442 216.58201299 75.11280831 213.162095 75.09375 209.7421875 C69.15375 209.7421875 63.21375 209.7421875 57.09375 209.7421875 C56.908125 211.8459375 56.908125 211.8459375 56.71875 213.9921875 C56.42233879 217.35151454 55.87329919 219.84881975 54.09375 222.7421875 C49.41764609 225.08023945 43.17071153 224.24165709 38.09375 223.7421875 C34.78125 221.8046875 34.78125 221.8046875 33.09375 218.7421875 C32.45002191 215.73477032 32.16736671 212.81401199 32.09375 209.7421875 C30.794375 209.8865625 29.495 210.0309375 28.15625 210.1796875 C27.42535156 210.26089844 26.69445312 210.34210938 25.94140625 210.42578125 C24.08234771 210.56105364 24.08234771 210.56105364 23.09375 211.7421875 C22.93588692 213.59393456 22.84267644 215.4512786 22.77734375 217.30859375 C22.73544922 218.43330078 22.69355469 219.55800781 22.65039062 220.71679688 C22.61107422 221.90080078 22.57175781 223.08480469 22.53125 224.3046875 C22.46647461 226.08649414 22.46647461 226.08649414 22.40039062 227.90429688 C22.29391454 230.85013534 22.19190159 233.7960618 22.09375 236.7421875 C25.48102672 238.86563996 28.11250869 240.17343874 32.09375 240.7421875 C34.09507365 248.06778729 35.71625959 255.1466228 36.09375 262.7421875 C36.14660156 263.804375 36.19945312 264.8665625 36.25390625 265.9609375 C36.42591602 272.2430336 36.42591602 272.2430336 36.09375 274.7421875 C32.34833421 277.23913136 29.30639296 277.02826512 24.96875 277.1171875 C17.93426553 277.34925693 17.93426553 277.34925693 11.40625 279.8046875 C5.62455412 282.85769132 -0.54490109 282.48004666 -6.90625 281.7421875 C-9.66144963 280.87925279 -12.24446536 279.8203896 -14.8984375 278.6875 C-19.38113693 277.27865161 -23.83618693 277.20559659 -28.51318359 277.15844727 C-33.50196434 277.04503802 -33.50196434 277.04503802 -35.60229492 275.47167969 C-38.73609844 271.31518014 -36.9363211 264.50825129 -36.35546875 259.62890625 C-36.10849064 257.89483245 -35.85453083 256.16173931 -35.59375 254.4296875 C-35.47580078 253.54990234 -35.35785156 252.67011719 -35.23632812 251.76367188 C-33.98511966 243.31320237 -33.98511966 243.31320237 -30.90625 240.7421875 C-28.29231999 239.55597733 -25.64394653 238.60056266 -22.90625 237.7421875 C-22.81930958 233.63815387 -22.76587851 229.53435621 -22.71875 225.4296875 C-22.69361328 224.26244141 -22.66847656 223.09519531 -22.64257812 221.89257812 C-22.62807617 220.21518555 -22.62807617 220.21518555 -22.61328125 218.50390625 C-22.58971558 216.956427 -22.58971558 216.956427 -22.56567383 215.37768555 C-22.6974762 212.72735512 -22.6974762 212.72735512 -24.2253418 210.89379883 C-26.73818079 209.17222126 -28.94688299 209.54489637 -31.90625 209.7421875 C-32.23625 213.3721875 -32.56625 217.0021875 -32.90625 220.7421875 C-33.56625 220.7421875 -34.22625 220.7421875 -34.90625 220.7421875 C-35.31101563 221.22945312 -35.71578125 221.71671875 -36.1328125 222.21875 C-38.75936935 224.47504333 -40.87501491 224.14057126 -44.28125 224.1171875 C-45.40273437 224.12492188 -46.52421875 224.13265625 -47.6796875 224.140625 C-51.19356074 223.70670845 -53.08640826 222.84425134 -55.90625 220.7421875 C-57.61403343 217.32662064 -57.52912908 213.51339667 -57.90625 209.7421875 C-63.84625 209.7421875 -69.78625 209.7421875 -75.90625 209.7421875 Z M-122.90625 239.7421875 C-123.40898437 240.30550781 -123.91171875 240.86882812 -124.4296875 241.44921875 C-129.87978955 247.97604828 -132.37346682 255.33874677 -131.84375 263.8671875 C-130.94380877 270.13677804 -128.39426877 275.51015934 -124.90625 280.7421875 C-124.24625 280.7421875 -123.58625 280.7421875 -122.90625 280.7421875 C-122.7 281.2990625 -122.49375 281.8559375 -122.28125 282.4296875 C-118.56271534 288.6835867 -112.20763249 291.55930732 -105.40625 293.4296875 C-96.7497885 294.51174519 -89.62490491 292.60151495 -81.90625 288.7421875 C-82.23625 285.4421875 -82.56625 282.1421875 -82.90625 278.7421875 C-84.329375 279.4021875 -85.7525 280.0621875 -87.21875 280.7421875 C-94.71543765 283.70279757 -101.55031656 283.79951517 -109.21875 281.3046875 C-114.63083021 278.90027607 -117.39856967 274.99813742 -119.90625 269.7421875 C-122.42721858 261.86996045 -120.93758009 254.21225095 -117.90625 246.7421875 C-117.24625 246.7421875 -116.58625 246.7421875 -115.90625 246.7421875 C-115.308125 246.1234375 -114.71 245.5046875 -114.09375 244.8671875 C-110.06647538 240.95497787 -106.31888859 240.51581637 -100.77929688 240.56640625 C-100.05806641 240.58316406 -99.33683594 240.59992188 -98.59375 240.6171875 C-97.85318359 240.62621094 -97.11261719 240.63523437 -96.34960938 240.64453125 C-94.53501533 240.66794537 -92.72058929 240.70381135 -90.90625 240.7421875 C-90.82528197 239.28476287 -90.76707226 237.82605943 -90.71875 236.3671875 C-90.68394531 235.55507813 -90.64914063 234.74296875 -90.61328125 233.90625 C-90.70996094 233.19210937 -90.80664062 232.47796875 -90.90625 231.7421875 C-101.28539203 224.82275948 -115.64809171 231.07272065 -122.90625 239.7421875 Z M91.09375 230.7421875 C90.62723793 232.86795532 90.62723793 232.86795532 90.46875 235.3046875 C90.39398438 236.13097656 90.31921875 236.95726562 90.2421875 237.80859375 C90.19320313 238.44667969 90.14421875 239.08476562 90.09375 239.7421875 C93.31195268 240.72196818 96.05746076 240.75928605 99.40625 240.6171875 C105.95569409 240.57358268 109.73517852 241.7588433 114.84375 246.0546875 C119.42200424 251.52315784 121.08214899 256.70037641 121.09375 263.7421875 C120.66466368 268.54015276 119.87314161 271.79427879 116.78125 275.5546875 C115.894375 276.2765625 115.0075 276.9984375 114.09375 277.7421875 C113.248125 278.4846875 112.4025 279.2271875 111.53125 279.9921875 C106.18167801 283.83290585 99.43181366 283.33880229 93.09375 282.7421875 C89.59832327 281.70263851 86.35869546 280.36021357 83.09375 278.7421875 C81.44397314 283.27015124 81.44397314 283.27015124 81.46875 287.9921875 C85.58447289 292.42450446 92.58049752 293.37080942 98.37890625 293.80859375 C106.10721664 293.61955594 113.89487475 291.36095729 120.09375 286.7421875 C128.32579558 277.73677647 131.05256686 269.90494106 131.09375 257.7421875 C130.65297964 250.04657532 127.01560973 243.56548674 122.09375 237.7421875 C118.94602685 235.28088373 115.71662864 233.41383729 112.09375 231.7421875 C111.31644531 231.36578125 110.53914063 230.989375 109.73828125 230.6015625 C106.36839004 229.5064723 103.44318449 229.51369037 99.90625 229.5546875 C98.67519531 229.56113281 97.44414062 229.56757813 96.17578125 229.57421875 C93.18174813 229.53240617 93.18174813 229.53240617 91.09375 230.7421875 Z M-173.90625 253.7421875 C-173.41294135 261.47450763 -173.41294135 261.47450763 -170.90625 268.7421875 C-166.69494937 268.21577492 -163.13610019 267.06642546 -159.203125 265.50390625 C-155.58779996 264.30494641 -151.88462055 263.76080407 -148.12890625 263.171875 C-145.94162496 262.96424197 -145.94162496 262.96424197 -144.90625 261.7421875 C-144.83476801 260.38974833 -144.82225546 259.03384383 -144.84375 257.6796875 C-144.864375 256.3803125 -144.885 255.0809375 -144.90625 253.7421875 C-149.55220665 251.38649117 -153.76105067 251.44239779 -158.84375 251.4921875 C-159.62943359 251.48445312 -160.41511719 251.47671875 -161.22460938 251.46875 C-165.84321757 251.48420978 -169.56186314 251.98490742 -173.90625 253.7421875 Z M144.09375 253.7421875 C144.09375 256.3821875 144.09375 259.0221875 144.09375 261.7421875 C147.1242524 263.11080149 150.0364487 263.9728298 153.28125 264.6171875 C157.74640915 265.54462424 161.75550664 267.12206261 165.9296875 268.9375 C168.17759476 269.91645067 168.17759476 269.91645067 171.09375 269.7421875 C172.79207609 263.90419158 173.34662193 258.81111379 173.09375 252.7421875 C168.62179127 251.4761218 164.3368515 251.55820739 159.71875 251.5546875 C158.88085938 251.54244141 158.04296875 251.53019531 157.1796875 251.51757812 C152.40913183 251.50632681 148.57643435 251.89508792 144.09375 253.7421875 Z M-105.46875 256.8671875 C-107.24821438 260.42611626 -107.1290135 261.99237944 -105.90625 265.7421875 C-104.90625 267.7421875 -104.90625 267.7421875 -102.90625 268.7421875 C-98.97530293 269.24248985 -96.8056713 269.3418017 -93.46875 267.1171875 C-91.44692687 264.04401635 -91.37869483 262.35970869 -91.90625 258.7421875 C-92.73958333 256.2421875 -92.73958333 256.2421875 -94.90625 254.7421875 C-100.70851461 253.90053908 -100.70851461 253.90053908 -105.46875 256.8671875 Z M91.96875 256.9296875 C90.96118079 260.16830282 90.87935685 261.58476531 92.09375 264.7421875 C93.59375 267.2421875 93.59375 267.2421875 96.09375 268.7421875 C100.0412276 268.7421875 102.31509232 268.26778143 105.59375 266.0546875 C107.38094555 263.77318031 107.38094555 263.77318031 107.03125 260.6796875 C106.06478175 257.65142032 105.53821823 256.6545266 103.09375 254.7421875 C98.73995637 253.79571062 95.14422566 253.66081549 91.96875 256.9296875 Z M142.09375 275.7421875 C139.46988513 278.80336318 139.09375 279.47391877 139.09375 283.7421875 C141.13707543 285.41454316 143.05815333 286.79115139 145.28125 288.1796875 C149.73691031 291.02594543 153.46961484 293.87234827 157.09375 297.7421875 C160.68999508 296.54343914 161.03477427 295.70577967 162.84375 292.4921875 C163.29234375 291.72390625 163.7409375 290.955625 164.203125 290.1640625 C165.29505162 287.19478836 165.15832799 285.70319977 164.09375 282.7421875 C157.42786404 278.29826352 149.87292821 277.1843947 142.09375 275.7421875 Z M-160.53125 280.6796875 C-163.89720868 282.32082664 -163.89720868 282.32082664 -164.76953125 284.51171875 C-164.96353366 287.67672947 -163.8498096 289.66269953 -162.46875 292.4921875 C-161.99566406 293.47703125 -161.52257812 294.461875 -161.03515625 295.4765625 C-160.66261719 296.22421875 -160.29007813 296.971875 -159.90625 297.7421875 C-155.8839122 297.19537199 -153.9151852 295.17436726 -151.03125 292.4296875 C-147.47318917 289.12427004 -144.05510538 286.25333681 -139.90625 283.7421875 C-140.67655122 280.25409559 -140.67655122 280.25409559 -141.90625 276.7421875 C-147.88764676 274.74838858 -154.96990167 278.14540219 -160.53125 280.6796875 Z M-113.90625 304.7421875 C-114.50566406 305.74378906 -114.50566406 305.74378906 -115.1171875 306.765625 C-115.70757812 307.74789063 -116.29796875 308.73015625 -116.90625 309.7421875 C-117.42106934 310.60118652 -117.42106934 310.60118652 -117.94628906 311.47753906 C-122.9183972 319.73270731 -127.92629492 327.41865995 -134.38671875 334.60546875 C-134.88816406 335.31058594 -135.38960937 336.01570313 -135.90625 336.7421875 C-134.58999806 340.69094332 -132.85259602 341.29211463 -129.34375 343.4296875 C-128.33183594 344.05230469 -127.31992188 344.67492187 -126.27734375 345.31640625 C-125.49488281 345.78691406 -124.71242188 346.25742187 -123.90625 346.7421875 C-117.05860055 340.60152251 -114.27825958 330.44187319 -111.53125 321.9296875 C-111.26852295 321.12982422 -111.0057959 320.32996094 -110.73510742 319.50585938 C-109.25610477 314.73571587 -108.626341 310.73389798 -108.90625 305.7421875 C-110.55625 305.4121875 -112.20625 305.0821875 -113.90625 304.7421875 Z M84.09375 304.7421875 C83.61043732 315.15418143 84.95124402 324.4085553 87.40625 334.4921875 C87.7194378 335.83692847 88.03129093 337.181981 88.34179688 338.52734375 C90.01029562 345.67720757 91.86273356 352.74608402 94.09375 359.7421875 C100.12145138 359.26631634 104.86053289 356.54495793 110.09375 353.7421875 C108.71751831 350.19941287 107.19822592 346.73704364 105.63183594 343.2746582 C100.30650101 331.42080439 96.8379493 319.44450394 94.09375 306.7421875 C90.79375 306.0821875 87.49375 305.4221875 84.09375 304.7421875 Z M108.09375 305.7421875 C109.59960535 320.73331464 114.72070822 332.75968455 122.09375 345.7421875 C126.08387371 345.18229447 128.6192552 343.98548982 131.90625 341.6796875 C132.69644531 341.13183594 133.48664063 340.58398438 134.30078125 340.01953125 C134.89246094 339.59800781 135.48414063 339.17648437 136.09375 338.7421875 C134.63976444 335.51273214 132.81198101 333.06720441 130.53125 330.3671875 C127.1667586 326.22910866 124.15813647 321.97421142 121.28125 317.4921875 C120.90863037 316.9142041 120.53601074 316.3362207 120.15209961 315.74072266 C117.89441459 312.17649512 115.91986904 308.54420191 114.09375 304.7421875 C110.3173568 304.4440451 110.3173568 304.4440451 108.09375 305.7421875 Z M-93.90625 306.7421875 C-94.21755859 308.25232422 -94.21755859 308.25232422 -94.53515625 309.79296875 C-97.51336723 323.61479436 -101.32351838 338.20352177 -109.15625 350.1484375 C-110.22349881 351.94056663 -110.22349881 351.94056663 -108.90625 354.7421875 C-106.98831272 355.95185617 -106.98831272 355.95185617 -104.65625 356.8671875 C-103.88796875 357.19976562 -103.1196875 357.53234375 -102.328125 357.875 C-99.86505087 358.75693945 -97.47250193 359.25507981 -94.90625 359.7421875 C-90.83809203 345.81303962 -86.82244415 331.93246003 -84.34375 317.6171875 C-84.09189941 316.18040649 -84.09189941 316.18040649 -83.83496094 314.71459961 C-82.93432219 309.68130704 -82.93432219 309.68130704 -83.90625 304.7421875 C-87.51654169 304.7421875 -90.46431676 305.70311332 -93.90625 306.7421875 Z " fill="#040502" transform="translate(281.90625,38.2578125)"/>
<path d="M0 0 C1.83459709 -0.03464489 3.66923283 -0.06732137 5.50390625 -0.09765625 C6.32463623 -0.11932861 7.14536621 -0.14100098 7.9909668 -0.16333008 C16.1991058 -0.20655311 23.4253123 2.02256394 29.87890625 7.15234375 C29.87890625 7.81234375 29.87890625 8.47234375 29.87890625 9.15234375 C30.47703125 9.39984375 31.07515625 9.64734375 31.69140625 9.90234375 C34.30133388 11.39373097 35.47248111 12.48753822 36.87890625 15.15234375 C36.80902204 18.57667009 36.43289802 20.44323429 34.31640625 23.15234375 C30.52488438 24.7078399 27.51285098 23.65663509 23.87890625 22.15234375 C22.3569531 21.13839761 20.83623594 20.12259503 19.31640625 19.10546875 C11.84962465 14.98974837 4.36478777 15.21242209 -3.9543457 15.31518555 C-6.55229712 15.33978413 -9.14278949 15.294965 -11.74023438 15.24414062 C-21.27360328 15.19478037 -27.83275184 15.91703593 -35.79321289 21.52758789 C-39.10020646 23.83572027 -41.10814393 24.48675624 -45.12109375 24.15234375 C-47.93877548 21.55711058 -49.84051018 19.02295819 -50.12109375 15.15234375 C-48.53125 12.96875 -48.53125 12.96875 -46.18359375 10.71484375 C-45.43207031 9.97363281 -44.68054688 9.23242188 -43.90625 8.46875 C-36.0707264 1.9519681 -30.7157402 0.38934014 -20.43359375 0.33984375 C-19.24910645 0.31760742 -18.06461914 0.29537109 -16.84423828 0.27246094 C-14.42871084 0.23155831 -12.01297004 0.20171116 -9.59716797 0.18310547 C-6.39633324 0.1547795 -3.19974559 0.08493966 0 0 Z " fill="#050503" transform="translate(288.12109375,329.84765625)"/>
<path d="M0 0 C1.60584961 0.0009668 1.60584961 0.0009668 3.24414062 0.00195312 C11.81404138 0.05024937 11.81404138 0.05024937 15.6875 1.1875 C17.2787689 6.060761 17.89942221 9.99540596 17.6875 15.1875 C13.3241539 16.50280469 11.28805709 15.85169136 7.3125 13.75 C1.73348553 11.08695042 -1.91969241 10.07151043 -7.97265625 12.0625 C-9.89275818 12.76541753 -11.80583942 13.48784787 -13.7109375 14.23046875 C-16.55699453 15.27744168 -19.29844554 15.86165627 -22.3125 16.1875 C-23.91661637 11.21473927 -22.56255984 7.07091134 -21.3125 2.1875 C-14.09244062 0.27475128 -7.44958126 -0.08678237 0 0 Z " fill="#050504" transform="translate(284.3125,353.8125)"/>
<path d="M0 0 C2.64 0 5.28 0 8 0 C8 2.31 8 4.62 8 7 C6.66382648 6.02471263 5.3311249 5.04466681 4 4.0625 C3.2575 3.51722656 2.515 2.97195312 1.75 2.41015625 C1.1725 1.94480469 0.595 1.47945313 0 1 C0 0.67 0 0.34 0 0 Z " fill="#000000" transform="translate(560,0)"/>
<path d="M0 0 C0.33 0 0.66 0 1 0 C1 2.64 1 5.28 1 8 C-1.31 8 -3.62 8 -6 8 C-5.34 7.67 -4.68 7.34 -4 7 C-3.67 6.01 -3.34 5.02 -3 4 C-2.34 4 -1.68 4 -1 4 C-0.67 2.68 -0.34 1.36 0 0 Z " fill="#000000" transform="translate(567,536)"/>
<path d="" fill="#000000" transform="translate(0,0)"/>
</svg>
